<svg xmlns="http://www.w3.org/2000/svg" xmlns:xlink="http://www.w3.org/1999/xlink" fill="none" version="1.1" width="38" height="39" viewBox="0 0 38 39"><g><path d="M19,0C29.4933,0,38,8.73054,38,19.5C38,30.2695,29.4933,39,19,39C8.50668,39,0,30.2695,0,19.5C0,8.73054,8.50668,0,19,0ZM28.88,13.26L9.12,13.26L9.12,28.86L28.88,28.86L28.88,13.26ZM27.36,14.82L27.36,27.3L10.64,27.3L10.64,14.82L27.36,14.82ZM15.58,16.77L14.06,16.77L14.06,18.72L12.16,18.72L12.16,20.28L14.06,20.28L14.06,22.23L15.58,22.23L15.58,20.28L17.48,20.28L17.48,18.72L15.58,18.72L15.58,16.77ZM25.84,18.72L20.52,18.72L20.52,20.28L25.84,20.28L25.84,18.72ZM25.84,10.14L22.04,10.14C21.6203,10.14,21.28,10.4892,21.28,10.92L21.28,11.7L26.6,11.7L26.6,10.92C26.6,10.4892,26.2597,10.14,25.84,10.14ZM15.96,10.14L12.16,10.14C11.7403,10.14,11.4,10.4892,11.4,10.92L11.4,11.7L16.72,11.7L16.72,10.92C16.72,10.4892,16.3797,10.14,15.96,10.14Z" fill="#6DD400" fill-opacity="1" style="mix-blend-mode:passthrough"/></g></svg>