<svg xmlns="http://www.w3.org/2000/svg" xmlns:xlink="http://www.w3.org/1999/xlink" fill="none" version="1.1" width="72" height="72" viewBox="0 0 72 72"><g><g><ellipse cx="36" cy="36" rx="35.65048545598984" ry="35.65048545598984" fill-opacity="0" stroke-opacity="1" stroke="#125DB5" fill="none" stroke-width="0.6990290880203247"/></g><g><path d="M61.9943848815918,47.6206955871582C61.7618848815918,48.121595587158204,61.979484881591794,48.716195587158204,62.480384881591796,48.9487955871582C62.981384881591794,49.1812955871582,63.57598488159179,48.963695587158206,63.808484881591795,48.462795587158205C63.808484881591795,48.462795587158205,61.9943848815918,47.6206955871582,61.9943848815918,47.6206955871582C61.9943848815918,47.6206955871582,61.9943848815918,47.6206955871582,61.9943848815918,47.6206955871582ZM50.177084881591796,62.672595587158206C50.667884881591796,62.4192955871582,50.8603848815918,61.8160955871582,50.607084881591796,61.3252955871582C50.353884881591796,60.8344955871582,49.750684881591795,60.641995587158206,49.259884881591795,60.8952955871582C49.259884881591795,60.8952955871582,50.177084881591796,62.672595587158206,50.177084881591796,62.672595587158206C50.177084881591796,62.672595587158206,50.177084881591796,62.672595587158206,50.177084881591796,62.672595587158206ZM36.2903848815918,64.0323955871582C20.6482848815918,64.0323955871582,7.967784881591797,51.351895587158204,7.967784881591797,35.709795587158204C7.967784881591797,35.709795587158204,5.967784881591797,35.709795587158204,5.967784881591797,35.709795587158204C5.967784881591797,52.4564955871582,19.543684881591798,66.0323955871582,36.2903848815918,66.0323955871582C36.2903848815918,66.0323955871582,36.2903848815918,64.0323955871582,36.2903848815918,64.0323955871582C36.2903848815918,64.0323955871582,36.2903848815918,64.0323955871582,36.2903848815918,64.0323955871582ZM7.967784881591797,35.709795587158204C7.967784881591797,20.067695587158205,20.6482848815918,7.387195587158203,36.2903848815918,7.387195587158203C36.2903848815918,7.387195587158203,36.2903848815918,5.387195587158203,36.2903848815918,5.387195587158203C19.543684881591798,5.387195587158203,5.967784881591797,18.963095587158204,5.967784881591797,35.709795587158204C5.967784881591797,35.709795587158204,7.967784881591797,35.709795587158204,7.967784881591797,35.709795587158204C7.967784881591797,35.709795587158204,7.967784881591797,35.709795587158204,7.967784881591797,35.709795587158204ZM36.2903848815918,7.387195587158203C51.9324848815918,7.387195587158203,64.6129848815918,20.067695587158205,64.6129848815918,35.709795587158204C64.6129848815918,35.709795587158204,66.6129848815918,35.709795587158204,66.6129848815918,35.709795587158204C66.6129848815918,18.963095587158204,53.037084881591795,5.387195587158203,36.2903848815918,5.387195587158203C36.2903848815918,5.387195587158203,36.2903848815918,7.387195587158203,36.2903848815918,7.387195587158203C36.2903848815918,7.387195587158203,36.2903848815918,7.387195587158203,36.2903848815918,7.387195587158203ZM64.6129848815918,35.709795587158204C64.6129848815918,39.9663955871582,63.6745848815918,44.001095587158204,61.9943848815918,47.6206955871582C61.9943848815918,47.6206955871582,63.808484881591795,48.462795587158205,63.808484881591795,48.462795587158205C65.6086848815918,44.584795587158204,66.6129848815918,40.2631955871582,66.6129848815918,35.709795587158204C66.6129848815918,35.709795587158204,64.6129848815918,35.709795587158204,64.6129848815918,35.709795587158204C64.6129848815918,35.709795587158204,64.6129848815918,35.709795587158204,64.6129848815918,35.709795587158204ZM49.259884881591795,60.8952955871582C45.375084881591796,62.899895587158206,40.966484881591796,64.0323955871582,36.2903848815918,64.0323955871582C36.2903848815918,64.0323955871582,36.2903848815918,66.0323955871582,36.2903848815918,66.0323955871582C41.2929848815918,66.0323955871582,46.0153848815918,64.82009558715819,50.177084881591796,62.672595587158206C50.177084881591796,62.672595587158206,49.259884881591795,60.8952955871582,49.259884881591795,60.8952955871582C49.259884881591795,60.8952955871582,49.259884881591795,60.8952955871582,49.259884881591795,60.8952955871582Z" fill="#0AA7FF" fill-opacity="1"/></g><g><ellipse cx="57.774184703826904" cy="56.03241682052612" rx="2.612903118133545" ry="2.612903118133545" fill="#F2994A" fill-opacity="1"/></g></g></svg>