<svg xmlns="http://www.w3.org/2000/svg" xmlns:xlink="http://www.w3.org/1999/xlink" fill="none" version="1.1" width="46.45161056518555" height="46.45161056518555" viewBox="0 0 46.45161056518555 46.45161056518555"><defs><clipPath id="master_svg0_97_08450/97_9296"><rect x="0" y="0" width="46.45161056518555" height="46.45161056518555" rx="0"/></clipPath><filter id="master_svg1_97_08450/97_9296/97_9284" filterUnits="objectBoundingBox" color-interpolation-filters="sRGB" x="-0.5609015597906433" y="-0.43055517060923554" width="2.196589994220039" height="2.148147121624628"><feFlood flood-opacity="0" result="BackgroundImageFix"/><feColorMatrix in="SourceAlpha" type="matrix" values="0 0 0 0 0 0 0 0 0 0 0 0 0 0 0 0 0 0 127 0"/><feOffset dy="4" dx="1"/><feGaussianBlur stdDeviation="4"/><feColorMatrix type="matrix" values="0 0 0 0 0.3657986521720886 0 0 0 0 0.6732187271118164 0 0 0 0 0.8958333134651184 0 0 0 0.6800000071525574 0"/><feBlend mode="normal" in2="BackgroundImageFix" result="effect1_dropShadow"/><feBlend mode="normal" in="SourceGraphic" in2="effect1_dropShadow" result="shape"/></filter></defs><g clip-path="url(#master_svg0_97_08450/97_9296)"><g filter="url(#master_svg1_97_08450/97_9296/97_9284)"><path d="M24.890420318603518,37.15550704498291C24.939720318603516,37.15760704498291,24.989120318603515,37.15950704498291,25.038720318603517,37.161307044982905L25.038720318603517,37.15820704498291L25.038820318603516,37.158307044982905C25.039520318603515,37.15880704498291,25.052120318603514,37.141907044982915,25.075020318603514,37.108507044982915C26.288720318603517,36.78710704498291,32.555120318603514,34.927607044982906,35.182520318603515,30.17690704498291C38.07882031860352,24.93960704498291,35.36732031860352,16.10915704498291,35.36732031860352,16.10915704498291C35.36732031860352,16.10915704498291,30.165720318603515,18.49716704498291,26.404620318603516,21.89700704498291C26.184720318603517,21.58450704498291,25.940620318603514,21.277107044982912,25.67062031860352,20.97600704498291C24.194420318603516,19.53790704498291,22.566120318603517,18.26470704498291,20.814520318603513,17.17878704498291C17.713280318603516,15.06357704498291,12.299670318603516,9.29030704498291,12.299670318603516,9.29030704498291L12.291940318603515,9.29030704498291C11.862710318603515,9.29417392498291,8.057690318603516,19.99150704498291,10.708059318603516,28.36180704498291C10.828090318603515,28.70040704498291,13.736690318603515,36.67290704498291,24.865920318603514,37.15440704498291C24.868220318603516,37.157907044982906,24.869520318603513,37.15970704498291,24.869520318603513,37.15970704498291L24.869520318603513,37.16050704498291C24.869520318603513,37.16050704498291,24.876620318603514,37.15880704498291,24.890420318603518,37.15550704498291Z" fill-rule="evenodd" fill="#0AA7FF" fill-opacity="1"/></g></g></svg>