<svg xmlns="http://www.w3.org/2000/svg" xmlns:xlink="http://www.w3.org/1999/xlink" fill="none" version="1.1" width="33.300048828125" height="31.467041015625" viewBox="0 0 33.300048828125 31.467041015625"><g><g><path d="M32.13,11.90004296875C32.778,11.90004296875,33.3,11.40704296875,33.3,10.79504296875L33.3,8.87404296875C33.3,8.26204296875,32.778,7.76904296875,32.13,7.76904296875L1.206,7.76904296875C0.558,7.76904296875,0.0360001,8.26204296875,0.0360001,8.87404296875L0.0360001,10.79504296875C0.0360001,11.40704296875,0.558,11.90004296875,1.206,11.90004296875L1.26,11.90004296875L4.554,21.53904296875L3.69,21.53904296875C3.168,21.53904296875,2.754,21.93004296875,2.754,22.42304296875L2.754,27.76104296875L0.9,27.76104296875L0.9,26.77504296875C0.9,26.53704296875,0.702,26.35004296875,0.45,26.35004296875C0.198,26.35004296875,0,26.53704296875,0,26.77504296875L0,29.63104296875C0,29.86904296875,0.198,30.05604296875,0.45,30.05604296875C0.702,30.05604296875,0.9,29.86904296875,0.9,29.63104296875L0.9,28.62804296875L5.436,28.62804296875C5.652,30.22604296875,7.092,31.46704296875,8.838,31.46704296875C10.584,31.46704296875,12.024,30.22604296875,12.24,28.62804296875L13.878,28.62804296875C13.986,28.62804296875,14.076,28.57704296875,14.166,28.52604296875C14.184,28.50904296875,14.202,28.49204296875,14.22,28.45804296875C14.238,28.42404296875,14.274,28.42404296875,14.292,28.39004296875L15.048,26.89404296875L18.36,26.89404296875L19.116,28.39004296875C19.134,28.42404296875,19.17,28.44104296875,19.188,28.45804296875C19.206,28.47504296875,19.224,28.49204296875,19.242,28.52604296875C19.332,28.59404296875,19.422,28.62804296875,19.53,28.62804296875L21.096,28.62804296875C21.312,30.22604296875,22.752,31.46704296875,24.498,31.46704296875C26.244,31.46704296875,27.684,30.22604296875,27.9,28.62804296875L32.382,28.62804296875L32.382,29.63104296875C32.382,29.86904296875,32.58,30.05604296875,32.832,30.05604296875C33.084,30.05604296875,33.282,29.86904296875,33.282,29.63104296875L33.282,26.77504296875C33.282,26.53704296875,33.084,26.35004296875,32.832,26.35004296875C32.58,26.35004296875,32.382,26.53704296875,32.382,26.77504296875L32.382,27.77804296875L30.6,27.77804296875L30.6,22.44004296875C30.6,21.94704296875,30.186,21.55604296875,29.664,21.55604296875L28.746,21.55604296875L32.058,11.91704296875L32.13,11.91704296875L32.13,11.90004296875ZM0.954,10.79504296875L0.954,8.87404296875C0.954,8.73804296875,1.08,8.61904296875,1.224,8.61904296875L32.13,8.61904296875C32.274,8.61904296875,32.4,8.73804396875,32.4,8.87404296875L32.4,10.79504296875C32.4,10.931042968749999,32.274,11.05004296875,32.13,11.05004296875L1.206,11.05004296875C1.062,11.05004296875,0.954,10.931042968749999,0.954,10.79504296875ZM8.838,30.60004296875C7.42636,30.60004296875,6.282,29.51924296875,6.282,28.18604296875C6.282,26.85284296875,7.42636,25.77204296875,8.838,25.77204296875C10.098,25.77204296875,11.124,26.62204296875,11.34,27.76104296875L9.594,27.76104296875C9.342,27.76104296875,9.144,27.94804296875,9.144,28.18604296875C9.144,28.42404296875,9.342,28.61104296875,9.594,28.61104296875L11.358,28.61104296875C11.124,29.75004296875,10.08,30.60004296875,8.838,30.60004296875ZM24.48,30.60004296875C23.22,30.60004296875,22.194,29.75004296875,21.978,28.61104296875L23.814,28.61104296875C24.066,28.61104296875,24.264,28.42404296875,24.264,28.18604296875C24.264,27.94804296875,24.066,27.76104296875,23.814,27.76104296875L21.978,27.76104296875C22.194,26.63904296875,23.238,25.77204296875,24.48,25.77204296875C25.884,25.77204296875,27.036,26.84304296875,27.036,28.18604296875C27.036,29.52904296875,25.902,30.60004296875,24.48,30.60004296875ZM29.7,22.42304296875L29.7,27.76104296875L27.9,27.76104296875C27.6828,26.14164296875,26.2264,24.92624296875,24.498,24.92204296875C22.752,24.92204296875,21.312,26.16304296875,21.096,27.76104296875L19.818,27.76104296875L19.062,26.26504296875L19.008,26.21404296875C18.972,26.16304296875,18.936,26.14604296875,18.882,26.11204296875C18.8334,26.07934296875,18.7783,26.05624296875,18.72,26.04404296875C18.702,26.04404296875,18.684,26.01004296875,18.648,26.01004296875L14.76,26.01004296875C14.724,26.01004296875,14.706,26.02704296875,14.688,26.04404296875C14.634,26.06104296875,14.58,26.07804296875,14.544,26.09504296875C14.49,26.12904296875,14.454,26.14604296875,14.418,26.19704296875C14.4,26.21404296875,14.364,26.23104296875,14.364,26.24804296875L13.608,27.74404296875L12.24,27.74404296875C12.024,26.14604296875,10.584,24.90504296875,8.838,24.90504296875C7.092,24.90504296875,5.652,26.14604296875,5.436,27.74404296875L3.654,27.74404296875L3.69,22.37204296875L29.7,22.42304296875ZM27.792,21.53904296875L5.508,21.53904296875L2.214,11.90004296875L31.104,11.90004296875L27.792,21.53904296875Z" fill="#0AA7FF" fill-opacity="1" style="mix-blend-mode:passthrough"/></g><g><path d="M30.618400390625,4.896L28.926400390625,4.896L27.414400390625,3.315L27.396400390625,3.315C27.360400390625,3.281,27.288400390625,3.264,27.234400390625,3.247C27.180400390625,3.23,27.144400390625,3.196,27.072400390625,3.179L24.696400390625,3.179L22.770400390625,0.204C22.752400390625,0.187,22.734400390625,0.187,22.734400390625,0.17C22.698400390625,0.119,22.644400390625,0.102,22.608400390625,0.085C22.559800390625,0.0522922,22.504700390625,0.0291658,22.446400390625,0.017C22.428400390625,0.017,22.410400390625,0,22.392400390625,0L21.240400390625,0C21.186400390625,0,21.168400390625,0.0339999,21.114400390625,0.051C21.078400390625,0.068,21.024400390625,0.051,20.988400390625,0.068L18.954400390625,1.36L15.984400390625,1.36C15.858400390625,1.36,15.750400390625,1.411,15.660400390625,1.479L15.084400390625,2.04L13.302400390625,0.68C13.248400390625,0.646,13.194400390625,0.646,13.158400390625,0.629C13.104400390625,0.612,13.068400390625,0.578,13.014400390625,0.578L10.944400390625,0.578C10.926400390625,0.578,10.908400390625,0.595,10.890400390625,0.595C10.836400390625,0.595,10.782400390625,0.629,10.746400390625,0.646C10.692400390625,0.68,10.656400390625,0.714,10.602400390625,0.748C10.602400390625,0.765,10.584400390625,0.765,10.566400390625,0.782L8.100400390625001,4.42L7.452400390625,4.063C7.416400390625,4.046,7.380400390625,4.063,7.326400390625,4.046C7.290400390625,4.029,7.254400390625,3.995,7.218400390625,3.995L5.166400390625,3.995C5.112400390625,3.995,5.076400390625,4.029,5.022400390625,4.046C4.968400390625,4.08,4.896400390625001,4.08,4.860400390625,4.114L2.304400390625,6.579C2.250400090625,6.613,2.268400390625,6.664,2.232400290625,6.715C2.214400190625,6.766,2.160400390625,6.817,2.160400390625,6.868L2.160400390625,8.194C2.160400390625,8.432,2.358400390625,8.619,2.610400390625,8.619C2.862400390625,8.619,3.060400390625,8.432,3.060400390625,8.194L3.060400390625,7.055L5.346400390625,4.845L7.074400390625,4.845L7.974400390625,5.355L7.992400390625,5.355C8.064400390625,5.389,8.136400390624999,5.423,8.226400390624999,5.423C8.298400390625,5.423,8.370400390625,5.406,8.442400390625,5.372L8.496400390625,5.321C8.550400390625,5.304,8.586400390625,5.27,8.622400390625,5.236L11.196400390625,1.428L12.852400390625,1.428L16.776400390625,4.403L16.776400390625,5.321C16.776400390625,5.559,16.974400390625,5.746,17.226400390625003,5.746C17.478400390624998,5.746,17.676400390625,5.559,17.676400390625,5.321L17.676400390625,4.216Q17.676400390625,4.199,17.658400390624998,4.199C17.658400390624998,4.148,17.622400390625,4.097,17.586400390625002,4.046C17.568400390625,3.995,17.550400390625,3.944,17.496400390625,3.91Q17.496400390625,3.893,17.478400390624998,3.893L15.786400390625,2.567L16.164400390624998,2.21L19.098400390625,2.21C19.188400390625,2.21,19.278400390625,2.193,19.350400390625,2.142L21.384400390625,0.850002L22.140400390625,0.850002L24.084400390625,3.825L24.138400390625,3.876L24.192400390625,3.927C24.282400390625,3.995,24.372400390625,4.029,24.480400390625,4.029L26.892400390625,4.029L28.404400390625,5.61L28.422400390625,5.61C28.512400390625,5.695,28.620400390625,5.746,28.746400390625,5.746L30.186400390625,5.746L30.186400390625,8.194C30.186400390625,8.432,30.384400390625,8.619,30.636400390625,8.619C30.888400390625,8.619,31.086400390625,8.432,31.086400390625,8.194L31.086400390625,5.321C31.068400390625,5.1,30.870400390625,4.896,30.618400390625,4.896Z" fill="#0AA7FF" fill-opacity="1" style="mix-blend-mode:passthrough"/></g></g></svg>