<svg xmlns="http://www.w3.org/2000/svg" xmlns:xlink="http://www.w3.org/1999/xlink" fill="none" version="1.1" width="43" height="44" viewBox="0 0 43 44"><defs><clipPath id="master_svg0_171_11821"><rect x="0" y="0" width="43" height="44" rx="0"/></clipPath></defs><g clip-path="url(#master_svg0_171_11821)"><g><path d="M32.1197658203125,2.75L9.4649658203125,2.75L9.5237546203125,12.38359L12.2112558203125,12.36641L12.1692658203125,5.5L28.2774658203125,5.5L28.2774658203125,15.125L37.6249658203125,15.125L37.6249658203125,38.5L12.1692658203125,38.5L12.2112558203125,31.6336L9.5237546203125,31.6164L9.4649658203125,41.25L40.3124658203125,41.25L40.3124658203125,11.93242L32.1197658203125,2.75ZM30.9607658203125,5.53008L37.0706658203125,12.375L30.9607658203125,12.375L30.9607658203125,5.53008Z" fill="#727272" fill-opacity="1" style="mix-blend-mode:passthrough"/></g><g><path d="M14.97021484375,9.625L25.71601484375,9.625L25.71601484375,12.375L14.97021484375,12.375L14.97021484375,9.625Z" fill="#497CAD" fill-opacity="1" style="mix-blend-mode:passthrough"/></g><g><path d="M24.20429609375,17.875L34.95009609375,17.875L34.95009609375,20.625L24.20429609375,20.625L24.20429609375,17.875ZM21.52099609375,24.75L34.95009609375,24.75L34.95009609375,27.5L21.52099609375,27.5L21.52099609375,24.75ZM16.14599609375,31.625L34.95009609375,31.625L34.95009609375,34.375L16.14599609375,34.375L16.14599609375,31.625Z" fill="#B2B2B2" fill-opacity="1" style="mix-blend-mode:passthrough"/></g><g><path d="M9.52383,14.99609375L15.3313,14.99609375L11.18252,19.24570375L20.9877,19.24570375L20.9877,24.754293750000002L11.18252,24.754293750000002L15.3313,29.00389375L9.52383,29.00389375L2.6875,22.00000375L9.52383,14.99609375Z" fill="#497CAD" fill-opacity="1" style="mix-blend-mode:passthrough"/></g></g></svg>