<svg xmlns="http://www.w3.org/2000/svg" xmlns:xlink="http://www.w3.org/1999/xlink" fill="none" version="1.1" width="52" height="41" viewBox="0 0 52 41"><defs><clipPath id="master_svg0_173_09645"><rect x="0" y="0" width="52" height="41" rx="0"/></clipPath></defs><g clip-path="url(#master_svg0_173_09645)"><g><path d="M42.03319765625,6.722341875L42.03319765625,25.173171875C42.03319765625,25.979171875,41.23939765625,26.613571875,40.27829765625,26.613571875L7.85496765625,26.613571875C6.8730776562500004,26.613571875,6.10009765625,25.961971875,6.10009765625,25.173171875L6.10009765625,6.722341875C6.10009765625,5.813519875,6.99842565625,5.076171875,8.10566765625,5.076171875L40.02769765625,5.076171875C41.13489765625,5.076171875,42.03319765625,5.813519875,42.03319765625,6.722341875Z" fill="#A6A2F0" fill-opacity="1" style="mix-blend-mode:passthrough"/></g><g><path d="M8.523681640625,7.08203125L39.568181640625,7.08203125L39.568181640625,24.62403125L8.523681640625,24.62403125L8.523681640625,7.08203125Z" fill="#FFFFFF" fill-opacity="1" style="mix-blend-mode:passthrough"/></g><g><path d="M19.7630615234375,26.63037109375L28.370301523437497,26.63037109375L28.370301523437497,28.84242109375L19.7630615234375,28.84242109375L19.7630615234375,26.63037109375Z" fill="#C9E6F8" fill-opacity="1" style="mix-blend-mode:passthrough"/></g><g><path d="M34.825865234375,30.2827453125L13.286865234375,30.2827453125C13.286865234375,29.8883453125,13.474888234375,29.5282473125,13.809149234374999,29.2538853125C14.122520234375,28.9966713125,14.561235234375,28.8251953125,15.062625234375,28.8251953125L33.091865234375,28.8251953125C34.052865234375,28.8423434125,34.825865234375,29.4768053125,34.825865234375,30.2827453125Z" fill="#A6A2F0" fill-opacity="1" style="mix-blend-mode:passthrough"/></g><g><path d="M10.487548828125,13.03173828125L26.552948828125,13.03173828125L26.552948828125,24.62353828125L10.487548828125,24.62353828125L10.487548828125,13.03173828125Z" fill="#FFFFFF" fill-opacity="1" style="mix-blend-mode:passthrough"/></g><g><path d="M28.161376953125,9.7744140625L37.708726953125,9.7744140625L37.708726953125,10.7689770625L28.161379930445,10.7689770625L28.161376953125,9.7744140625Z" fill="#FEC355" fill-opacity="1" style="mix-blend-mode:passthrough"/></g><g><path d="M28.161376953125,11.33447265625L37.708726953125,11.33447265625L37.708726953125,12.32903565625L28.161379930445,12.32903565625L28.161376953125,11.33447265625Z" fill="#62A8E1" fill-opacity="1" style="mix-blend-mode:passthrough"/></g><g><path d="M26.5457466796875,12.32415284375L10.4803466796875,12.32415284375L10.4803466796875,11.32958984375L26.5457466796875,11.32958984375L26.5457466796875,12.32415284375Z" fill="#FF5252" fill-opacity="1" style="mix-blend-mode:passthrough"/></g><g><path d="M24.9371466796875,23.6962203125L12.0889866796875,23.6962203125L12.0889866796875,22.701620312499998L24.9371466796875,22.701620312499998L24.9371466796875,23.6962203125ZM26.5458466796875,10.7728833125L10.4803466796875,10.7728833125L10.4803466796875,9.7783203125L26.5458466796875,9.7783203125L26.5458466796875,10.7728833125ZM28.1615466796875,13.0320803125L37.7088466796875,13.0320803125L37.7088466796875,14.0266503125L28.1615466796875,14.0266503125L28.1615466796875,13.0320803125ZM28.1615466796875,19.2052303125L31.1490466796875,19.2052303125L31.1490466796875,20.1998203125L28.1615466796875,20.1998203125L28.1615466796875,19.2052303125ZM28.1615466796875,21.0572203125L31.1490466796875,21.0572203125L31.1490466796875,22.051720312500002L28.1615466796875,22.051720312500002L28.1615466796875,21.0572203125ZM28.1615466796875,22.9091203125L37.7088466796875,22.9091203125L37.7088466796875,23.9037203125L28.1615466796875,23.9037203125L28.1615466796875,22.9091203125Z" fill="#62A8E1" fill-opacity="1" style="mix-blend-mode:passthrough"/></g><g><path d="M36.058651796875,18.60546875L35.787061796875,18.86268375L36.956971796875,19.73720875L33.092073796875,19.73720875L34.261991796875,18.86268375L33.990401796875,18.60546875L32.319091796875,19.84009875L33.092070796875,22.42938875L36.956971796875,22.42938875L37.729951796875,19.84009875L36.058651796875,18.60546875ZM34.805161796875,20.52599875L33.948621796875,20.52599875L33.865051796875,20.08016875L34.784271796875004,20.08016875L34.784271796875004,20.52599875L34.805161796875,20.52599875ZM35.222991796875,20.08016875L36.142211796875,20.08016875L36.058651796875,20.52599875L35.202101796875,20.52599875L35.202101796875,20.08016875L35.222991796875,20.08016875ZM33.551681796875,20.52599875L32.945833796875,20.52599875L32.820484796875,20.08016875L33.489011796875,20.08016875L33.551681796875,20.52599875ZM33.050289796875,20.85180875L33.614351796875,20.85180875L33.697921796875,21.33193875L33.196526796875,21.33193875L33.050289796875,20.85180875ZM34.011291796875,20.85180875L34.805161796875,20.85180875L34.805161796875,21.33193875L34.094861796875,21.33193875L34.011291796875,20.85180875ZM35.222991796875,20.85180875L36.016861796875,20.85180875L35.933301796875,21.33193875L35.222991796875,21.33193875L35.222991796875,20.85180875ZM36.434691796875,20.85180875L36.998761796875,20.85180875L36.852521796875,21.33193875L36.351121796875,21.33193875L36.434691796875,20.85180875ZM36.497361796875,20.52599875L36.580931796875,20.08016875L37.249451796875,20.08016875L37.124101796875,20.52599875L36.497361796875,20.52599875ZM33.405441796875,22.10358875L33.280097796875,21.67489875L33.739711796875,21.67489875L33.802381796875,22.10358875L33.405441796875,22.10358875ZM34.136641796875,21.67489875L34.805161796875,21.67489875L34.805161796875,22.10358875L34.220211796875,22.10358875L34.136641796875,21.67489875ZM35.222991796875,22.10358875L35.222991796875,21.67489875L35.891521796875,21.67489875L35.828841796875,22.10358875L35.222991796875,22.10358875ZM36.225781796875,22.10358875L36.288451796875,21.67489875L36.748061796875,21.67489875L36.622711796875,22.10358875L36.225781796875,22.10358875Z" fill="#CACACA" fill-opacity="1" style="mix-blend-mode:passthrough"/></g><g><path d="M15.668610703125001,21.12604171875L13.370560703125,19.08547171875L12.409559703125,20.16577171875L11.657470703125,19.71993171875L13.286990703125,17.88514171875L15.480590703125,19.82282171875L18.906770703124998,14.74712171875L21.497300703125,18.19379171875L24.568370703124998,13.71826171875L25.383070703125,14.09550971875L21.539080703125002,19.70279171875L18.948550703125,16.25611171875L15.668610703125001,21.12604171875Z" fill="#FF5252" fill-opacity="1" style="mix-blend-mode:passthrough"/></g><g><path d="M28.161376953125,14.71240234375L32.318756953125,14.71240234375L32.318756953125,17.71324234375L28.161376953125,17.71324234375L28.161376953125,14.71240234375Z" fill="#FEC355" fill-opacity="1" style="mix-blend-mode:passthrough"/></g><g><path d="M33.55126953125,14.71240234375L37.70864953125,14.71240234375L37.70864953125,17.71324234375L33.55126953125,17.71324234375L33.55126953125,14.71240234375Z" fill="#C9E6F8" fill-opacity="1" style="mix-blend-mode:passthrough"/></g><g><path d="M8.523681640625,7.08203125L39.568181640625,7.08203125L39.568181640625,8.95112125L8.523681640625,8.95112125L8.523681640625,7.08203125Z" fill="#8D8DE2" fill-opacity="1" style="mix-blend-mode:passthrough"/></g><g><path d="M10.550005,8.00741959375C10.550005,7.75020559375,10.299313,7.54443359375,9.985942,7.54443359375C9.672571,7.54443359375,9.421875,7.75020459375,9.421875,8.00741959375C9.421875,8.26463459375,9.672571,8.47040659375,9.985941,8.47040659375C10.299311,8.47040659375,10.550005,8.26463459375,10.550005,8.00741959375Z" fill="#FF5252" fill-opacity="1" style="mix-blend-mode:passthrough"/></g><g><path d="M12.284135859375,8.00741959375C12.284135859375,7.75020559375,12.033443859375,7.54443359375,11.720072859375,7.54443359375C11.406701859375,7.54443359375,11.156005859375,7.75020459375,11.156005859375,8.00741959375C11.156005859375,8.26463459375,11.406701859375,8.47040659375,11.720071859375,8.47040659375C12.033441859375,8.47040659375,12.284135859375,8.26463459375,12.284135859375,8.00741959375Z" fill="#FEC355" fill-opacity="1" style="mix-blend-mode:passthrough"/></g><g><path d="M45.961110351562496,22.89194375L45.961110351562496,34.98104375C45.961110351562496,35.59834375,45.355210351562505,36.09564375,44.6031103515625,36.09564375L24.0460503515625,36.09564375C23.2939603515625,36.09564375,22.6881103515625,35.59834375,22.6881103515625,34.98104375L22.6881103515625,22.89194375C22.6881103515625,22.27462375,23.2939603515625,21.77734375,24.0460503515625,21.77734375L44.6031103515625,21.77734375C45.355210351562505,21.77734375,45.961110351562496,22.27462575,45.961110351562496,22.89194375Z" fill="#6F68E6" fill-opacity="1" style="mix-blend-mode:passthrough"/></g><g><path d="M43.672018359375,34.94078984375L25.726318359375,34.94078984375L25.726318359375,22.95458984375L43.672018359375,22.95458984375L43.672018359375,34.94078984375Z" fill="#E4E4E4" fill-opacity="1" style="mix-blend-mode:passthrough"/></g><g><path d="M24.8189573828125,28.9448925625C24.8189573828125,29.2364025625,24.5682673828125,29.4764665625,24.2340023828125,29.5450565625C24.1922203828125,29.5450565625,24.1295463828125,29.5622065625,24.0877643828125,29.5622065625C23.6908283828125,29.5622065625,23.3565673828125,29.2878465625,23.3565673828125,28.9620405625C23.3565673828125,28.7048265625,23.5445903828125,28.4990545625,23.8161773828125,28.3961683625C23.8997433828125,28.3618721625,24.0041993828125,28.3447265625,24.1086563828125,28.3447265625C24.5055873828125,28.3447265625,24.8189573828125,28.6019405625,24.8189573828125,28.9448925625Z" fill="#FFFFFF" fill-opacity="1" style="mix-blend-mode:passthrough"/></g><g><path d="M24.8188300390625,28.9448925625C24.8188300390625,29.2364025625,24.5681290390625,29.4764665625,24.2338670390625,29.5450565625L23.8160400390625,28.3961683625C23.8996061390625,28.3618721625,24.0040630390625,28.3447265625,24.1085190390625,28.3447265625C24.5054540390625,28.3447265625,24.8188300390625,28.6019405625,24.8188300390625,28.9448925625Z" fill="#FFFFFF" fill-opacity="1" style="mix-blend-mode:passthrough"/></g><g><path d="M26.5947265625,26.76708984375L42.6601265625,26.76708984375L42.6601265625,34.92935984375L26.5947265625,34.92935984375L26.5947265625,26.76708984375Z" fill="#FFFFFF" fill-opacity="1" style="mix-blend-mode:passthrough"/></g><g><path d="M42.6497505859375,26.06048096875L26.5843505859375,26.06048096875L26.5843505859375,25.06591796875L42.6497505859375,25.06591796875L42.6497505859375,26.06048096875Z" fill="#FF5252" fill-opacity="1" style="mix-blend-mode:passthrough"/></g><g><path d="M42.6498505859375,24.5092124375L26.5843505859375,24.5092124375L26.5843505859375,23.5146484375L42.6497505859375,23.5146484375L42.6498505859375,24.5092124375ZM41.291850585937496,34.3824484375L27.9422905859375,34.3824484375L27.9422905859375,33.3879084375L41.291850585937496,33.3879084375L41.291850585937496,34.3824484375Z" fill="#62A8E1" fill-opacity="1" style="mix-blend-mode:passthrough"/></g><g><path d="M32.632203671875,32.804018125L31.044463671875,31.380768125L30.355045671875,32.135258125L29.832763671875,31.826598125L30.981783671875,30.557678125L32.506853671875,31.895188125L34.888473671875,28.362778125L36.706013671875,30.763448125L38.836933671875,27.642578125L39.401003671875,27.899792125L36.726903671875,31.809458125L34.909363671875,29.408788125L32.632203671875,32.804018125Z" fill="#FF5252" fill-opacity="1" style="mix-blend-mode:passthrough"/></g></g></svg>