<svg xmlns="http://www.w3.org/2000/svg" xmlns:xlink="http://www.w3.org/1999/xlink" fill="none" version="1.1" width="41" height="41" viewBox="0 0 41 41"><defs><clipPath id="master_svg0_171_11826"><rect x="0" y="0" width="41" height="41" rx="0"/></clipPath></defs><g clip-path="url(#master_svg0_171_11826)"><g><path d="M26.07835234375,31.98064375C26.07835234375,31.55014375,25.76785234375,31.20154375,25.38535234375,31.20154375L15.68625234375,31.20154375C15.30395234375,31.20154375,14.99345234375,31.55014375,14.99345234375,31.98064375L14.99345234375,35.09664375L8.065282343749999,35.09664375L8.065282343749999,37.43344375L33.00585234375,37.43344375L33.00585234375,35.09664375L26.07835234375,35.09664375L26.07835234375,31.98064375ZM36.11625234375,3.58984375L4.95557234375,3.58984375C3.66459234375,3.58984375,2.61865234375,4.63502375,2.61865234375,5.92604375L2.61865234375,27.73834375C2.61865234375,29.02844375,3.66459234375,30.07534375,4.95557234375,30.07534375L36.11635234375,30.07534375C37.40735234375,30.07534375,38.45335234375,29.02844375,38.45335234375,27.73834375L38.45335234375,5.92604375C38.45335234375,4.63498375,37.40735234375,3.589843444526,36.11625234375,3.58984375ZM36.11625234375,26.95784375C36.11625234375,27.38764375,35.76705234375,27.73664375,35.33725234375,27.73664375L5.73465234375,27.73664375C5.30411234375,27.73664375,4.9557723437500005,27.38764375,4.9557723437500005,26.95784375L4.9557723437500005,6.70432375C4.9557723437500005,6.2736237500000005,5.30411234375,5.92528375,5.73465234375,5.92528375L35.33725234375,5.92528375C35.76705234375,5.92528375,36.11635234375,6.2736237500000005,36.11635234375,6.70432375L36.11625234375,26.95784375L36.11625234375,26.95784375ZM28.13595234375,25.46744375L32.35045234375,25.46744375L32.35045234375,13.19717375L28.13595234375,13.19717375L28.13595234375,25.46744375ZM21.39265234375,25.46744375L25.60715234375,25.46744375L25.60715234375,9.42169375L21.39265234375,9.42169375L21.39265234375,25.46744375ZM8.749032343749999,25.46744375L12.96355234375,25.46744375L12.96355234375,20.74814375L8.749032343749999,20.74814375L8.749032343749999,25.46744375ZM14.64935234375,25.46744375L18.86385234375,25.46744375L18.86385234375,16.971843749999998L14.64935234375,16.971843749999998L14.64935234375,25.46754375L14.64935234375,25.46744375Z" fill="#3D3D3D" fill-opacity="1" style="mix-blend-mode:passthrough"/></g></g></svg>