<svg xmlns="http://www.w3.org/2000/svg" xmlns:xlink="http://www.w3.org/1999/xlink" fill="none" version="1.1" width="32.999900817871094" height="33.00000762939453" viewBox="0 0 32.999900817871094 33.00000762939453"><g><path d="M5.72413,9.53024C6.32215,9.54554,6.89856,9.73855,7.36652,10.0802C7.64035,10.3131,7.9483,10.5098,8.28147,10.6645C8.8521,10.9274,9.48027,11.0684,10.1188,11.077C9.69007,11.4673,9.35538,11.9357,9.13641,12.4519C8.64178,13.7028,8.45982,15.0396,8.60394,16.3636C8.6251,16.503,8.75061,16.6094,8.90393,16.6179L9.50389,16.6179C9.60328,16.6225,9.69771,16.5779,9.75137,16.5011C9.81131,16.4416,9.84124,16.3617,9.83387,16.2811C9.83387,15.4286,9.92386,13.0981,11.7237,12.9675C13.2237,12.8025,13.8986,13.0913,15.106,13.1256C15.2389,13.3532,15.4497,13.5344,15.706,13.6412C15.4964,14.5213,15.4432,15.4267,15.5485,16.3223C15.5601,16.4635,15.6866,16.5735,15.841,16.5767L16.4709,16.5767C16.5384,16.5703,16.6017,16.5438,16.6509,16.5011C16.7052,16.439,16.732,16.3604,16.7259,16.2811C16.6994,15.6248,16.7829,14.9686,16.9734,14.3356C17.78,14.6583,18.675,14.747,19.5383,14.5899C19.7014,14.6772,19.8901,14.7157,20.0782,14.6999C20.7469,16.2274,22.4026,17.195,24.1955,17.106C25.5222,17.1416,26.7984,16.6384,27.6827,15.7311C29.6701,15.4974,31.2,14.1981,31.2,12.6169C31.215,12.5212,31.215,12.4239,31.2,12.3282C32.2479,11.9706,32.958,11.0701,32.9999,10.0458C32.9472,9.03305,32.2383,8.14757,31.2,7.79785C31.4927,7.47785,31.6545,7.07427,31.6575,6.65667C31.5907,5.71689,30.859,4.92871,29.8576,4.71804C29.9498,4.47954,29.998,4.22862,30.0001,3.97559C30.0001,2.39444,28.3052,1.12265,26.2503,1.12265C25.9414,1.11587,25.6325,1.13659,25.3279,1.18452C24.1044,-0.435364,21.474,-0.384754,20.3257,1.28076C19.8084,0.978856,19.2065,0.821227,18.5933,0.82704C17.0934,0.82704,15.8185,1.77573,15.8185,2.95128L15.8185,3.1094C15.1714,2.71217,14.4073,2.50588,13.6286,2.51818C12.3187,2.44646,11.0809,3.07268,10.4488,4.12683C10.2523,4.08328,10.051,4.06022,9.84887,4.05809C8.72157,3.96588,7.72119,4.71783,7.59901,5.74923C7.59974,5.84915,7.61487,5.94855,7.64401,6.04484C6.65352,6.37251,5.7509,6.89051,4.99667,7.56411C4.26046,8.35577,3.68399,9.26132,3.29428,10.2383C3.26109,10.3305,3.27485,10.4315,3.33178,10.5133C3.38667,10.5897,3.47945,10.6361,3.57926,10.637L4.08923,10.637C4.18441,10.634,4.27165,10.5876,4.32172,10.5133C4.6551,10.0441,5.14806,9.68892,5.72413,9.50274L5.72413,9.53024ZM21.2706,25.438L19.5983,25.438L18.5933,17.546C18.5737,17.2584,18.3152,17.0334,18.0009,17.0304L14.5061,17.0304C14.1917,17.0334,13.9332,17.2584,13.9136,17.546L12.9237,25.438L12.8037,25.438L11.8137,17.546C11.7941,17.2584,11.5356,17.0334,11.2213,17.0304L7.734,17.0304C7.41821,17.0332,7.15742,17.2573,7.13404,17.546L6.1516,25.438L6.04661,25.438L5.48414,12.0326C5.49678,11.7186,5.22688,11.4557,4.88418,11.4482L3.0543,11.4482C2.89357,11.4462,2.74,11.5091,2.63432,11.6201C2.52216,11.7328,2.46056,11.8801,2.46183,12.0326L1.89187,25.438L1.14192,25.438C0.822202,25.4446,0.561372,25.6747,0.541954,25.9673L0.00198846,32.3607C-0.0116132,32.5228,0.0449629,32.6833,0.159479,32.8075C0.268513,32.9287,0.430611,32.9992,0.601951,33L24.8254,33C25.0404,32.997,25.2362,32.8861,25.3354,32.7113C25.4407,32.5285,25.4407,32.3098,25.3354,32.1269L21.7506,25.7405C21.6542,25.5614,21.4584,25.4452,21.2406,25.438L21.2706,25.438Z" fill="#2CA6FF" fill-opacity="1" style="mix-blend-mode:passthrough"/></g></svg>