<svg xmlns="http://www.w3.org/2000/svg" xmlns:xlink="http://www.w3.org/1999/xlink" fill="none" version="1.1" width="35.99925231933594" height="26.515499114990234" viewBox="0 0 35.99925231933594 26.515499114990234"><g><path d="M35.8464,15.2443L32.8278,2.99475C32.2772,1.28986,30.6125,0.0893142,28.6752,0L7.64223,0C5.7041,0.0992699,4.01364,1.24025,3.33483,2.9073L3.33483,2.9832C3.33483,3.0723,0.926431,11.9691,0.220831,15.2427C-0.205498,16.5247,-0.00873207,17.913,0.760832,19.0525C1.53043,19.9873,2.68746,20.5886,3.95763,20.7141L32.0664,20.7141C33.3606,20.5968,34.5296,19.9545,35.2524,18.9634C35.9658,17.8077,36.1779,16.448,35.8464,15.1553L35.8464,15.2443ZM3.99903,18.8743C3.3155,18.7837,2.6935,18.4624,2.25483,17.9734C1.83168,17.2699,1.75131,16.4356,2.03343,15.675C2.76783,12.6159,4.94223,4.4055,5.17623,3.5145C5.54318,2.53307,6.52453,1.85496,7.65483,1.8018L28.6752,1.8018C29.7372,1.8678,30.6408,2.5311,30.945,3.465L33.9636,15.6634C34.1544,16.4439,34.0428,17.2606,33.645,17.9734C33.2355,18.5125,32.5753,18.8456,31.8594,18.8743L3.99903,18.8743ZM19.3836,24.1164L25.392,25.2466L25.392,26.5155L10.812,26.5155L10.812,25.3093L16.6134,24.1164L16.6134,21.7305L19.3836,21.7305L19.3836,24.1164ZM6.45063,3.3891L8.01663,2.4618L16.1706,2.4618L17.3478,3.42705L17.3478,7.65435L16.0878,8.80935L6.46503,8.80935L5.42643,7.53885L6.46503,3.4023L6.45063,3.3891ZM4.62543,11.0038L6.45243,9.54525L15.9654,9.54525L17.3514,10.9923L17.3514,16.2971L15.8826,17.5675L4.62363,17.5675L3.41763,16.1205L4.62363,10.9659L4.62363,11.0038L4.62543,11.0038ZM29.7534,3.3891L30.5706,7.53885L29.532,8.80935L19.839,8.80935L18.579,7.70385L18.579,3.3891L19.8102,2.4618L28.2018,2.4618L29.7534,3.3891ZM31.359,11.0038L32.565,16.1584L31.359,17.6055L20.1018,17.6055L18.6348,16.335L18.6348,10.9923L20.019,9.54525L29.532,9.54525L31.359,10.9923L31.359,11.0038Z" fill="#F8B52F" fill-opacity="1" style="mix-blend-mode:passthrough"/></g></svg>