<svg xmlns="http://www.w3.org/2000/svg" xmlns:xlink="http://www.w3.org/1999/xlink" fill="none" version="1.1" width="46.45161056518555" height="46.45161056518555" viewBox="0 0 46.45161056518555 46.45161056518555"><defs><clipPath id="master_svg0_97_08451/97_9296"><rect x="0" y="0" width="46.45161056518555" height="46.45161056518555" rx="0"/></clipPath><filter id="master_svg1_97_08451/97_9296/97_9368" filterUnits="objectBoundingBox" color-interpolation-filters="sRGB" x="-0.4973176357505229" y="-0.41690937679249424" width="2.0609442896011156" height="2.111758338113318"><feFlood flood-opacity="0" result="BackgroundImageFix"/><feColorMatrix in="SourceAlpha" type="matrix" values="0 0 0 0 0 0 0 0 0 0 0 0 0 0 0 0 0 0 127 0"/><feOffset dy="4" dx="1"/><feGaussianBlur stdDeviation="4"/><feColorMatrix type="matrix" values="0 0 0 0 0.3657986521720886 0 0 0 0 0.6732187271118164 0 0 0 0 0.8958333134651184 0 0 0 0.6800000071525574 0"/><feBlend mode="normal" in2="BackgroundImageFix" result="effect1_dropShadow"/><feBlend mode="normal" in="SourceGraphic" in2="effect1_dropShadow" result="shape"/></filter></defs><g clip-path="url(#master_svg0_97_08451/97_9296)"><g filter="url(#master_svg1_97_08451/97_9296/97_9368)"><path d="M15.134845130310058,20.184762742614744C15.46796513031006,19.606762742614748,15.85759513031006,19.063262742614747,16.29800513031006,18.562202742614744C16.870205130310058,19.244262742614744,17.582605130310057,19.794962742614747,18.386735130310058,20.176962742614748C19.190835130310056,20.558962742614746,20.06783513031006,20.763262742614746,20.95793513031006,20.775962742614745C21.84183513031006,20.773262742614747,22.71343513031006,20.568262742614746,23.505735130310057,20.176562742614745C27.52143513031006,18.223622742614744,31.252535130310058,16.365852742614745,31.252535130310058,16.365852742614745C31.252535130310058,16.365852742614745,27.16643513031006,7.635252742614746,20.302735130310058,8.964978742614747C16.26872513031006,9.745603742614746,14.84840513031006,12.491072742614746,15.070785130310059,15.727952742614747C15.092905130310058,16.038252742614745,15.14906513031006,16.34512274261475,15.238255130310058,16.643112742614747C14.49526513031006,17.389412742614745,13.852605130310058,18.229262742614747,13.326495130310057,19.141462742614745C13.253825130310059,19.260462742614745,13.205675130310059,19.392662742614746,13.184905130310058,19.530462742614745C13.164145130310057,19.668262742614747,13.171165130310058,19.808762742614746,13.20556513031006,19.943862742614748C13.239965130310058,20.078862742614746,13.301045130310058,20.20566274261475,13.385215130310058,20.316762742614745C13.469385130310059,20.427862742614746,13.574925130310058,20.520862742614746,13.695635130310059,20.590562742614747C13.816345130310058,20.660162742614745,13.949765130310059,20.704962742614747,14.088045130310059,20.722262742614745C14.226325130310059,20.739462742614748,14.366655130310058,20.728962742614748,14.500785130310058,20.691062742614747C14.634915130310059,20.653262742614746,14.760105130310059,20.588962742614747,14.869005130310057,20.502062742614747C14.97790513031006,20.415062742614744,15.068295130310059,20.307262742614746,15.134845130310058,20.184762742614744ZM26.542235130310058,28.167762742614745C26.22553513031006,32.62086274261475,25.967535130310058,36.78206274261474,25.967535130310058,36.78206274261474C25.967535130310058,36.78206274261474,26.351835130310057,36.814962742614746,26.979635130310058,36.814962742614746C29.514635130310058,36.814962742614746,36.02783513031006,36.28696274261475,37.85263513031006,31.000062742614745C39.19333513031006,27.115262742614746,37.52593513031006,24.511662742614746,34.61753513031006,23.088562742614748C34.192335130310056,22.883262742614747,33.736835130310055,22.747662742614747,33.26863513031006,22.686862742614746C33.00273513031006,21.878062742614745,32.65383513031006,21.09906274261475,32.22713513031006,20.362362742614746C32.08883513031006,20.122562742614747,31.860835130310058,19.947462742614746,31.59343513031006,19.875762742614747C31.32613513031006,19.804062742614747,31.04113513031006,19.841462742614745,30.801335130310058,19.979762742614746C30.56153513031006,20.118162742614746,30.386535130310058,20.34606274261475,30.31483513031006,20.613462742614747C30.24303513031006,20.880862742614745,30.28043513031006,21.165762742614746,30.418835130310057,21.405562742614748C30.68303513031006,21.861962742614747,30.91163513031006,22.338062742614746,31.10243513031006,22.829562742614748C29.874335130310058,23.120562742614744,28.77063513031006,23.794562742614744,27.950835130310058,24.754162742614746C27.13103513031006,25.713762742614747,26.63773513031006,26.909262742614747,26.542235130310058,28.167762742614745ZM10.991925130310058,22.125962742614746C10.991925130310058,22.125962742614746,5.349065130310059,29.827962742614748,9.996235130310058,35.18066274261474C10.549435130310059,35.90736274261475,11.256985130310058,36.50226274261475,12.067885130310058,36.922362742614744C12.878775130310059,37.342562742614746,13.772805130310058,37.577562742614745,14.685515130310058,37.61036274261475C16.044865130310058,37.56926274261475,17.36095513031006,37.123162742614745,18.46513513031006,36.32916274261474C18.583635130310057,36.24956274261474,18.69783513031006,36.16376274261475,18.807335130310058,36.07206274261475C20.009135130310057,36.45076274261474,21.261935130310057,36.64276274261475,22.52193513031006,36.64126274261474C22.79883513031006,36.64126274261474,23.06433513031006,36.531362742614746,23.260035130310058,36.33556274261475C23.45573513031006,36.139862742614746,23.56573513031006,35.87436274261475,23.56573513031006,35.59756274261474C23.56573513031006,35.32076274261475,23.45573513031006,35.055262742614744,23.260035130310058,34.85956274261474C23.06433513031006,34.66376274261475,22.79883513031006,34.55386274261475,22.52193513031006,34.55386274261475C21.71843513031006,34.556362742614745,20.917335130310057,34.46426274261475,20.135235130310058,34.27926274261475C20.73443513031006,32.99356274261474,20.859135130310058,31.537162742614747,20.487235130310058,30.168362742614747C20.115335130310058,28.799562742614746,19.27103513031006,27.606462742614745,18.103595130310058,26.800562742614748C14.404535130310059,24.299462742614747,10.991925130310058,22.125962742614746,10.991925130310058,22.125962742614746Z" fill-rule="evenodd" fill="#0AA7FF" fill-opacity="1"/></g></g></svg>