<svg xmlns="http://www.w3.org/2000/svg" xmlns:xlink="http://www.w3.org/1999/xlink" fill="none" version="1.1" width="35" height="35" viewBox="0 0 35 35"><defs><clipPath id="master_svg0_31_2407"><rect x="0" y="0" width="35" height="35" rx="0"/></clipPath></defs><g clip-path="url(#master_svg0_31_2407)"><g><path d="M17.39295458984375,18.418730517578126C18.87015458984375,18.418730517578126,20.06745458984375,17.234630517578125,20.06745458984375,15.779130517578125C20.06745458984375,14.320830517578125,18.87165458984375,13.141030517578125,17.39295458984375,13.141030517578125C15.91415458984375,13.141030517578125,14.71835458984375,14.322330517578125,14.71835458984375,15.780630517578125C14.71835458984375,17.234630517578125,15.91415458984375,18.418730517578126,17.39295458984375,18.418730517578126ZM16.25975458984375,20.343730517578123L14.60755458984375,35.000030517578125L20.11995458984375,35.000030517578125L18.46185458984375,20.345230517578123L16.25975458984375,20.345230517578123L16.25975458984375,20.343730517578123ZM28.63085458984375,20.820630517578124C26.40485458984375,19.210030517578126,24.10555458984375,17.703430517578123,21.74015458984375,16.305630517578123C21.63745458984375,16.244530517578124,21.51095458984375,16.239030517578126,21.40335458984375,16.291030517578125C21.29565458984375,16.338530517578125,21.21935458984375,16.437330517578125,21.20065458984375,16.553530517578125C21.04565458984375,17.466930517578124,20.55395458984375,18.289130517578126,19.82245458984375,18.857730517578126C19.72925458984375,18.931030517578126,19.67845458984375,19.045730517578125,19.68685458984375,19.164030517578126C19.69565458984375,19.280630517578125,19.76565458984375,19.387130517578125,19.86915458984375,19.449830517578125C24.46285458984375,21.946530517578125,29.89075458984375,24.616630517578123,31.44535458984375,24.656030517578124C31.61455458984375,24.651630517578123,31.84495458984375,24.628330517578124,32.01125458984375,24.397930517578125C32.057954589843746,24.315630517578125,32.08255458984375,24.222730517578125,32.08265458984375,24.128130517578125C31.94415458984375,23.272130517578123,30.60095458984375,22.337330517578124,28.63085458984375,20.820630517578124ZM16.084754589843747,12.430830517578125C15.84925458984375,12.515630517578124,15.60095458984375,12.341330517578125,15.60065458984375,12.091030517578124C15.66915458984375,7.802120517578125,16.033754589843753,3.341060517578125,16.55285458984375,1.302310517578125C16.78185458984375,0.646060517578125,16.77895458984375,0.144405517578125,17.44395458984375,0.000030517578125C18.11475458984375,0.145875517578125,18.105954589843748,0.644624517578125,18.33645458984375,1.302310517578125C18.514354589843748,1.986280517578125,18.66895458984375,2.928370517578125,18.79875458984375,4.054180517578125C19.06565458984375,6.292740517578125,19.24785458984375,9.237120517578125,19.29015458984375,12.089630517578126C19.29035458984375,12.208030517578125,19.23265458984375,12.319130517578126,19.13565458984375,12.387130517578125C19.07685458984375,12.431430517578125,19.00505458984375,12.455030517578125,18.93145458984375,12.454130517578125C18.887554589843752,12.454530517578124,18.84405458984375,12.446630517578125,18.80315458984375,12.430830517578125C18.369154589843752,12.264130517578124,17.90885458984375,12.176730517578125,17.44395458984375,12.172730517578126C16.968554589843748,12.172730517578126,16.51355458984375,12.270430517578125,16.084754589843747,12.430830517578125ZM15.11065458984375,19.102730517578124C15.09775458984375,19.221230517578125,15.02815458984375,19.326230517578125,14.92395458984375,19.384130517578125C10.36232458984375,21.863430517578124,5.14292458984375,24.290030517578124,3.58251958984375,24.325030517578124C3.40020558984375,24.320630517578124,3.16251958984375,24.313330517578127,2.99189508984375,24.062530517578125C2.94087748984375,23.981930517578125,2.91450574984375,23.888130517578126,2.91601613164375,23.792730517578125C3.05458058984375,22.932330517578126,4.35976458984375,22.054430517578126,6.29354458984375,20.603330517578126C8.21417458984375,19.228130517578126,10.73126458984375,17.609430517578126,13.14045458984375,16.194830517578126C13.35815458984375,16.062230517578126,13.64045458984375,16.196130517578126,13.67565458984375,16.448530517578124C13.80575458984375,17.365430517578126,14.27195458984375,18.201130517578125,14.98375458984375,18.793530517578127C15.07415458984375,18.867930517578124,15.12225458984375,18.986030517578126,15.11065458984375,19.102730517578124Z" fill="#29F1FA" fill-opacity="1" style="mix-blend-mode:passthrough"/></g></g></svg>